<?xml version="1.0" standalone="no"?>
<!DOCTYPE svg PUBLIC "-//W3C//DTD SVG 20010904//EN"
 "http://www.w3.org/TR/2001/REC-SVG-20010904/DTD/svg10.dtd">
<svg version="1.0" xmlns="http://www.w3.org/2000/svg"
 width="1552.000000pt" height="1552.000000pt" viewBox="0 0 1552.000000 1552.000000"
 preserveAspectRatio="xMidYMid meet">
<metadata>
Created by potrace 1.14, written by Peter Selinger 2001-2017
</metadata>
<g transform="translate(0.000000,1552.000000) scale(0.100000,-0.100000)"
fill="#000000" stroke="none">
<path d="M7379 12516 c-2 -2 -35 -7 -74 -10 -124 -10 -183 -18 -245 -30 -50
-10 -95 -17 -117 -19 -12 -2 -25 -6 -28 -9 -4 -4 -13 -4 -20 -2 -7 3 -16 0
-20 -5 -3 -6 -10 -9 -14 -6 -5 2 -41 -5 -82 -16 -41 -12 -78 -22 -84 -23 -56
-12 -82 -19 -90 -24 -5 -4 -16 -8 -22 -9 -30 -7 -48 -12 -50 -13 -2 -2 -6 -3
-10 -5 -5 -1 -21 -7 -38 -14 -16 -7 -39 -15 -50 -17 -11 -2 -29 -8 -40 -13
-11 -5 -60 -26 -110 -46 -144 -60 -324 -156 -333 -177 -2 -4 -10 -8 -17 -8 -8
0 -18 -7 -23 -16 -5 -9 -12 -15 -16 -15 -25 5 -241 -193 -337 -309 -57 -68
-139 -186 -139 -200 0 -5 -4 -10 -10 -10 -5 0 -10 -6 -10 -14 0 -8 -3 -16 -7
-18 -7 -2 -49 -89 -84 -173 -11 -26 -58 -172 -63 -193 -2 -10 -6 -24 -10 -33
-4 -9 -9 -29 -11 -45 -2 -16 -4 -29 -5 -29 -1 0 -3 -11 -6 -25 -2 -14 -7 -36
-11 -50 -3 -14 -7 -32 -7 -40 -1 -8 -4 -19 -7 -25 -3 -5 -4 -20 -3 -32 0 -13
-1 -23 -5 -23 -3 0 -6 -10 -7 -22 -1 -29 -12 -135 -19 -168 -7 -42 -35 -451
-35 -520 0 -8 0 -44 0 -80 1 -36 0 -99 0 -140 -2 -88 8 -319 15 -372 3 -21 7
-55 10 -75 3 -21 7 -56 10 -78 2 -22 7 -53 10 -70 4 -16 8 -41 10 -55 2 -14 4
-25 5 -25 2 0 9 -35 14 -72 2 -18 7 -37 11 -43 4 -6 8 -21 9 -33 7 -56 76
-272 129 -397 56 -136 190 -365 220 -378 4 -2 7 -8 7 -14 0 -10 73 -103 111
-140 10 -10 21 -23 26 -30 14 -23 152 -145 223 -199 19 -15 45 -35 57 -45 12
-11 36 -30 54 -44 18 -14 38 -31 45 -37 7 -7 17 -13 23 -13 6 0 11 -3 11 -7 0
-5 16 -19 35 -32 19 -13 43 -31 54 -40 10 -9 29 -23 42 -31 12 -8 30 -22 39
-30 9 -8 42 -33 75 -55 32 -22 63 -44 69 -50 30 -28 511 -349 551 -367 14 -6
25 -15 25 -20 0 -4 5 -8 10 -8 6 0 44 -22 86 -50 41 -27 79 -50 83 -50 4 0 16
-8 27 -17 10 -10 68 -51 128 -92 60 -41 117 -80 125 -87 9 -7 52 -39 96 -72
44 -32 87 -65 95 -73 8 -8 40 -33 72 -57 31 -24 68 -54 82 -67 14 -13 26 -22
26 -20 0 2 13 -9 28 -23 15 -15 59 -54 97 -87 38 -33 86 -78 107 -100 38 -39
118 -186 118 -216 0 -8 4 -19 9 -24 6 -6 12 -23 15 -40 2 -16 5 -30 6 -30 1 0
3 -9 5 -20 2 -11 6 -31 9 -45 38 -161 57 -383 58 -670 0 -151 -2 -196 -16
-256 -2 -12 -7 -38 -10 -59 -3 -20 -11 -45 -16 -56 -6 -10 -8 -19 -4 -19 3 0
0 -7 -7 -17 -8 -9 -13 -18 -12 -19 4 -6 -7 -33 -38 -99 -48 -104 -147 -184
-259 -209 -78 -17 -215 -12 -265 10 -22 10 -42 18 -45 18 -11 2 -76 52 -98 76
-28 29 -69 112 -76 153 -3 15 -7 36 -11 47 -3 10 -8 36 -10 57 -12 118 -17
175 -18 238 -1 39 -6 73 -12 77 -7 5 -7 8 0 8 11 0 12 91 1 109 -4 6 -3 11 3
11 7 0 7 8 1 24 -5 13 -7 26 -5 27 8 10 12 80 3 85 -5 4 -5 10 0 17 5 7 6 21
2 32 -4 11 -4 34 0 52 5 21 4 34 -4 37 -6 2 -6 5 -1 5 9 1 10 99 2 203 -1 20
0 35 3 33 7 -4 3 175 -3 182 -3 3 -2 16 3 28 6 16 5 25 -3 29 -9 3 -9 5 0 5 8
1 9 10 3 30 -4 15 -5 33 -1 40 4 6 6 26 4 43 -5 41 -4 86 1 113 2 11 -1 28 -6
38 -5 11 -5 17 1 17 7 0 7 8 2 23 -5 12 -10 27 -12 32 -3 7 -323 10 -929 11
-509 1 -930 2 -936 3 -6 0 -11 7 -11 14 0 17 -13 107 -19 132 -2 11 -6 36 -8
55 -7 55 -17 123 -22 150 -2 14 -7 45 -10 70 -3 25 -7 56 -10 70 -3 14 -7 41
-9 60 -2 19 -9 64 -14 100 -6 36 -13 81 -16 100 -2 19 -7 49 -10 65 -12 69
-15 92 -20 136 -3 26 -8 58 -10 70 -5 22 -14 85 -21 134 -1 11 -3 20 -4 20 -1
0 -3 20 -6 45 -5 44 -11 85 -14 85 -1 0 -3 22 -5 50 -2 27 -7 61 -10 75 -4 14
-9 43 -11 65 -2 22 -6 51 -9 65 -3 14 -8 45 -11 70 -3 25 -7 56 -10 70 -2 14
-7 41 -9 60 -3 19 -8 51 -11 70 -3 19 -8 51 -10 70 -2 19 -6 46 -9 60 -3 14
-7 45 -10 70 -3 25 -7 56 -10 70 -8 38 -13 70 -19 120 -3 25 -8 56 -11 70 -3
14 -8 43 -10 65 -2 22 -6 58 -10 80 -10 64 -21 132 -30 195 -2 19 -6 44 -9 55
-2 11 -7 43 -10 70 -4 28 -10 64 -12 80 -3 17 -6 47 -8 66 -2 20 -6 41 -9 47
-4 5 -7 21 -6 33 0 13 -2 35 -5 49 -3 14 -9 48 -11 76 -3 28 -8 62 -11 75 -3
13 -7 42 -10 64 -2 22 -8 63 -14 90 -5 28 -11 70 -15 95 -3 25 -7 56 -10 70
-3 14 -7 43 -9 65 -2 22 -6 51 -10 65 -3 14 -8 43 -10 65 -3 22 -7 55 -10 73
-13 87 -17 113 -33 222 -4 25 -7 53 -7 63 0 9 -3 17 -6 17 -3 0 -6 12 -6 28
-2 32 -13 116 -20 152 -2 14 -7 43 -10 65 -3 22 -12 83 -20 135 -8 52 -17 111
-20 130 -2 19 -7 46 -9 60 -3 14 -7 49 -11 78 -3 29 -8 63 -10 75 -8 31 -16
98 -16 125 0 12 -3 22 -7 22 -5 0 -10 42 -11 97 0 12 -5 25 -10 28 -6 4 -8 10
-5 15 3 5 -1 50 -9 102 -8 51 -17 109 -20 128 -2 19 -7 46 -10 60 -2 14 -7 48
-10 75 -3 28 -7 57 -10 65 -6 19 -18 115 -20 157 0 18 -3 33 -6 33 -3 0 -6 8
-7 18 -4 54 -15 127 -19 132 -3 3 -777 5 -1720 6 -1553 0 -1714 -1 -1715 -15
0 -9 -2 -25 -4 -36 -2 -11 -7 -49 -11 -85 -3 -36 -8 -67 -9 -70 -2 -3 -6 -34
-10 -70 -4 -36 -8 -72 -10 -80 -1 -8 -6 -40 -10 -70 -4 -30 -9 -64 -11 -75 -2
-11 -7 -47 -10 -80 -3 -33 -8 -71 -10 -85 -3 -14 -7 -38 -9 -55 -7 -66 -15
-131 -20 -155 -2 -14 -7 -49 -10 -79 -4 -30 -8 -62 -10 -71 -2 -9 -6 -43 -9
-76 -4 -32 -11 -86 -16 -119 -11 -66 -19 -129 -26 -190 -2 -22 -6 -53 -9 -70
-3 -16 -7 -50 -10 -75 -2 -25 -6 -56 -9 -70 -3 -14 -7 -46 -10 -72 -3 -27 -9
-69 -13 -95 -3 -27 -6 -58 -7 -70 0 -13 -2 -23 -5 -23 -4 0 -6 -15 -7 -32 -1
-35 -8 -95 -19 -166 -3 -24 -8 -58 -10 -75 -4 -35 -13 -104 -21 -152 -2 -16
-6 -50 -10 -75 -3 -25 -7 -61 -10 -80 -3 -19 -6 -51 -9 -70 -2 -19 -6 -55 -10
-80 -4 -25 -8 -58 -10 -75 -2 -16 -7 -50 -10 -75 -9 -60 -12 -85 -19 -145 -3
-27 -7 -59 -10 -70 -2 -11 -7 -47 -10 -80 -4 -33 -9 -73 -12 -90 -2 -16 -6
-46 -8 -65 -3 -19 -9 -64 -15 -100 -5 -36 -13 -92 -16 -125 -4 -33 -8 -71 -10
-85 -17 -104 -25 -164 -30 -220 -5 -49 -13 -110 -20 -150 -2 -14 -7 -47 -10
-75 -3 -27 -8 -63 -11 -80 -2 -16 -6 -46 -8 -65 -3 -19 -9 -66 -14 -105 -6
-38 -10 -77 -10 -85 -1 -8 -5 -44 -11 -80 -19 -117 -21 -135 -25 -180 -3 -25
-5 -45 -6 -45 -1 0 -3 -13 -5 -30 -3 -34 -14 -118 -20 -155 -2 -14 -7 -50 -10
-80 -8 -63 -10 -79 -18 -135 -3 -22 -9 -65 -13 -95 -3 -30 -8 -64 -10 -74 -3
-18 -12 -89 -19 -146 -4 -37 -15 -120 -21 -160 -12 -84 -15 -107 -19 -145 -2
-22 -4 -40 -5 -40 -1 0 -3 -13 -5 -30 -2 -16 -7 -55 -11 -85 -4 -30 -8 -63
-10 -72 -1 -10 -2 -19 -4 -20 -1 -2 -3 -19 -4 -38 -4 -43 -15 -127 -20 -157
-3 -12 -8 -53 -11 -90 -4 -37 -9 -71 -11 -74 -1 -3 -6 -34 -10 -70 -7 -72 -12
-104 -14 -104 -1 0 -3 -21 -5 -46 -1 -25 -5 -59 -9 -75 -6 -30 -14 -91 -21
-147 -2 -18 -6 -51 -9 -74 -3 -24 -8 -60 -11 -80 -2 -21 -7 -54 -9 -73 -3 -19
-10 -73 -16 -120 -6 -47 -13 -96 -15 -110 -2 -14 -7 -45 -10 -70 -8 -72 -15
-122 -21 -163 -3 -20 -7 -47 -8 -60 -2 -12 -6 -44 -10 -72 -7 -54 -13 -95 -21
-165 -3 -25 -7 -61 -10 -80 -3 -19 -8 -55 -11 -80 -2 -25 -7 -61 -10 -80 -3
-19 -8 -44 -9 -55 -2 -11 -6 -45 -9 -75 -4 -30 -8 -64 -10 -75 -2 -11 -7 -45
-10 -75 -4 -30 -9 -68 -12 -85 -3 -16 -7 -49 -8 -71 -2 -23 -5 -45 -8 -50 -3
-5 -6 -28 -7 -50 -1 -23 -4 -52 -7 -65 -3 -13 -7 -42 -10 -64 -2 -22 -6 -55
-9 -72 -3 -18 -8 -57 -11 -85 -3 -29 -7 -64 -10 -78 -9 -58 -37 -277 -38 -300
l-1 -25 1222 -1 c1106 0 1223 1 1227 15 5 19 19 162 20 209 0 17 3 32 6 32 3
0 5 26 6 58 0 31 4 91 8 132 4 41 9 102 12 135 3 33 7 80 10 105 2 25 6 77 10
115 3 39 7 90 10 115 2 25 6 74 9 110 3 36 8 88 10 115 5 50 13 147 20 240 2
28 4 50 5 50 1 0 3 27 6 60 3 51 10 127 13 145 1 7 838 6 845 -1 6 -6 10 -47
21 -204 4 -49 8 -110 11 -135 4 -45 11 -134 20 -260 2 -36 7 -94 10 -130 6
-72 10 -137 18 -250 3 -41 8 -97 10 -125 3 -27 8 -90 12 -140 3 -49 8 -110 10
-135 2 -25 6 -83 9 -130 3 -47 8 -94 10 -106 l4 -20 1211 0 1210 0 -5 55 c-3
31 -7 63 -9 71 -3 13 -9 56 -22 145 -2 17 -6 42 -9 58 -6 31 3 34 31 9 10 -9
42 -32 69 -49 28 -18 55 -36 60 -40 26 -20 171 -93 185 -93 5 0 10 -4 10 -10
0 -5 8 -10 18 -10 10 0 22 -4 27 -9 31 -28 311 -137 490 -190 148 -43 295 -77
420 -97 17 -2 45 -7 64 -10 100 -16 180 -19 561 -19 365 0 490 4 565 19 11 2
40 7 65 10 25 3 56 8 70 11 14 3 41 8 60 11 19 3 42 7 50 10 8 3 24 7 35 9 11
2 31 6 45 9 27 5 207 53 228 61 7 2 16 5 20 6 9 3 162 58 182 66 8 3 20 7 26
8 19 5 159 67 172 78 7 5 15 7 19 3 3 -3 15 1 25 11 10 9 18 13 18 10 0 -8
202 97 258 134 98 67 191 140 256 201 36 35 67 62 67 59 1 -4 3 -116 4 -251 2
-135 3 -252 4 -261 1 -14 109 -16 1187 -15 l1187 1 1 1915 1 1915 355 2 355 2
0 -1917 0 -1917 1188 -1 1187 -1 0 4567 0 4567 -1188 0 -1189 0 -1 -1616 c0
-889 -1 -1624 -1 -1634 -1 -16 -22 -17 -353 -15 l-353 3 -2 1625 c-1 894 -2
1628 -2 1631 -1 9 -2355 7 -2366 -2 -6 -4 -10 -132 -10 -348 1 -188 -2 -341
-6 -341 -3 0 -18 17 -31 38 -63 95 -223 244 -368 343 -36 24 -66 47 -68 52 -2
4 -10 7 -17 7 -8 0 -20 6 -27 13 -7 7 -35 24 -63 38 -27 14 -66 35 -85 46 -47
26 -210 96 -290 124 -36 12 -71 27 -77 32 -7 5 -13 7 -13 4 0 -3 -26 3 -57 14
-32 11 -65 22 -73 24 -8 2 -40 11 -70 19 -161 43 -216 55 -252 59 -10 1 -18 5
-18 10 0 4 -4 6 -9 3 -4 -3 -41 1 -80 8 -74 14 -79 15 -83 17 -2 1 -21 2 -43
4 -22 2 -62 6 -90 10 -27 4 -68 9 -90 12 -47 6 -761 14 -766 9z m501 -1549
c36 -8 108 -46 137 -74 37 -35 78 -111 88 -163 3 -19 8 -44 10 -55 2 -11 4
-20 5 -20 1 0 3 -11 5 -25 14 -113 18 -242 20 -615 2 -236 3 -435 4 -441 1 -7
290 -10 947 -10 520 1 949 -1 953 -4 4 -3 7 -447 7 -987 l0 -982 -51 56 c-135
151 -308 312 -490 455 -44 34 -86 69 -94 76 -8 7 -26 21 -40 30 -14 9 -33 22
-41 29 -37 30 -155 115 -212 154 -35 23 -65 45 -68 48 -9 10 -69 51 -75 51 -3
0 -15 8 -26 18 -10 11 -32 25 -47 33 -15 8 -33 20 -40 27 -7 6 -16 12 -20 12
-4 0 -20 11 -36 25 -16 14 -33 25 -38 25 -5 0 -14 5 -21 10 -25 21 -88 60 -97
60 -6 0 -10 4 -10 8 0 5 -12 15 -27 23 -15 8 -55 32 -88 54 -33 22 -69 45 -80
51 -66 36 -101 57 -105 63 -3 4 -22 15 -42 24 -20 10 -40 22 -43 27 -4 6 -30
22 -58 36 -29 15 -60 33 -69 42 -10 8 -18 11 -18 6 0 -5 -4 -4 -8 1 -9 13 -69
55 -78 55 -4 0 -22 11 -40 25 -18 14 -37 25 -43 25 -6 0 -11 5 -11 10 0 6 -7
10 -15 10 -8 0 -15 5 -15 10 0 6 -5 10 -10 10 -6 0 -33 17 -60 38 -27 20 -68
52 -92 69 -24 18 -57 45 -75 60 -17 16 -39 35 -50 44 -71 62 -179 211 -167
231 3 4 0 8 -5 8 -6 0 -10 3 -9 8 0 4 -2 15 -5 25 -17 43 -20 53 -22 62 -2 6
-10 34 -18 63 -9 28 -14 52 -11 52 3 0 0 8 -5 18 -5 10 -12 36 -15 58 -3 21
-10 65 -14 97 -15 102 -7 443 12 517 10 36 18 72 18 80 0 8 5 20 10 27 5 7 7
17 3 23 -3 5 -1 10 4 10 6 0 11 6 11 14 0 7 12 40 27 72 47 103 159 194 259
210 21 3 40 7 42 8 3 3 122 -3 142 -7z m-4846 -807 c4 -47 9 -103 11 -125 3
-22 7 -74 10 -115 3 -41 7 -97 10 -125 3 -27 8 -81 10 -120 2 -38 5 -70 5 -70
1 0 3 -20 5 -45 2 -25 6 -74 9 -110 3 -36 8 -94 11 -130 3 -36 8 -90 11 -120
2 -30 6 -80 9 -110 2 -30 6 -77 9 -105 3 -27 9 -84 12 -125 3 -41 7 -91 10
-110 2 -19 6 -64 9 -100 3 -36 7 -85 10 -110 10 -94 18 -177 21 -225 16 -196
20 -230 28 -244 4 -6 2 -11 -4 -11 -6 0 -8 -5 -4 -11 7 -11 8 -21 18 -144 4
-38 8 -83 10 -100 2 -16 6 -61 10 -100 4 -38 9 -88 11 -110 3 -22 8 -67 11
-100 7 -76 10 -107 18 -175 3 -30 9 -84 12 -120 3 -36 8 -81 10 -100 6 -50 10
-95 18 -175 4 -38 10 -88 13 -110 2 -22 6 -58 8 -80 2 -22 4 -40 5 -40 1 0 3
-20 5 -45 4 -58 15 -152 20 -167 2 -7 -1 -16 -8 -20 -7 -4 -191 -8 -409 -8
l-398 -1 4 71 c4 62 8 107 21 245 2 19 4 35 5 35 1 0 3 27 4 60 2 33 6 83 9
110 4 28 9 73 11 100 3 28 8 75 12 105 3 30 8 73 10 95 4 41 13 127 19 180 1
17 6 57 9 90 4 33 9 71 11 85 2 14 7 52 10 85 3 33 8 78 11 100 3 22 7 60 9
85 4 41 6 63 20 170 3 19 7 53 10 75 2 22 7 58 10 80 7 56 14 112 20 170 2 28
7 68 10 90 3 22 8 56 10 75 3 19 7 49 9 65 3 17 7 53 10 80 4 28 9 73 13 100
3 28 7 62 7 78 1 15 3 27 7 27 3 0 5 10 5 23 0 32 18 171 23 180 1 1 3 22 5
47 5 57 17 159 22 185 6 26 15 99 19 150 2 22 4 40 5 40 3 0 9 41 14 95 3 30
8 66 11 80 3 14 7 45 10 70 2 25 6 59 9 75 2 17 7 50 10 75 3 25 8 54 10 65 4
20 11 77 22 170 6 54 14 88 19 83 2 -2 6 -41 9 -88z"/>
</g>
</svg>
